<?xml version="1.0" encoding="utf-8"?>
<!-- Generator: Adobe Illustrator 20.0.0, SVG Export Plug-In . SVG Version: 6.00 Build 0)  -->
<svg version="1.1" id="Layer_1" xmlns="http://www.w3.org/2000/svg" xmlns:xlink="http://www.w3.org/1999/xlink" x="0px" y="0px"
	 viewBox="0 0 1474 935.4" style="enable-background:new 0 0 1474 935.4;" xml:space="preserve">
<style type="text/css">
	.st0{fill:#FFFFFF;stroke:#000000;stroke-miterlimit:10;}
</style>
<polygon class="st0" points="259.1,12.2 436.3,720.9 82,720.9 "/>
<polygon class="st0" points="446.3,720.9 623.5,12.2 269.1,12.2 "/>
<polygon class="st0" points="633.5,12.2 810.6,720.9 456.3,720.9 "/>
<polygon class="st0" points="820.6,720.9 997.8,12.2 643.5,12.2 "/>
<polygon class="st0" points="1007.8,12.2 1185,720.9 830.6,720.9 "/>
<polygon class="st0" points="1195,720.9 1372.1,12.2 1017.8,12.2 "/>
<polygon class="st0" points="97.4,12.2 168.3,295.7 26.5,295.7 "/>
<polygon class="st0" points="178.3,293.4 107.4,9.9 249.1,9.9 "/>
<polygon class="st0" points="97.4,589.1 168.3,305.7 26.5,305.7 "/>
<polygon class="st0" points="1356.6,718.6 1285.7,435.1 1427.5,435.1 "/>
<polygon class="st0" points="1275.7,437.4 1346.6,720.9 1204.9,720.9 "/>
<polygon class="st0" points="1356.6,141.6 1285.7,425.1 1427.5,425.1 "/>
</svg>
